<svg width="35" height="38" viewBox="0 0 35 38" fill="none" xmlns="http://www.w3.org/2000/svg">
<g clip-path="url(#clip0)">
<path d="M11.8407 19.0148L1.14314 19.0148C0.501008 19.0148 -0.0423419 19.5863 -2.60109e-06 20.2617C0.359875 25.8875 3.13306 30.8156 7.23286 33.9328C7.75504 34.3262 8.49597 34.148 8.83467 33.5766L14.5081 24.0469C12.9133 22.9855 11.8407 21.1375 11.8407 19.0148ZM14.5081 13.9902C15.376 13.4188 16.3992 13.0699 17.5 13.0699C18.6008 13.0699 19.6169 13.4188 20.4919 13.9902L26.1653 4.45313C26.504 3.88165 26.3347 3.10977 25.7702 2.79063C23.3075 1.39532 20.4919 0.593756 17.5 0.593756C14.5081 0.593756 11.6925 1.39532 9.22984 2.79063C8.66532 3.10977 8.49597 3.88907 8.83468 4.45313L14.5081 13.9902ZM17.5 15.4523C15.63 15.4523 14.1129 17.0481 14.1129 19.0148C14.1129 20.9816 15.63 22.5773 17.5 22.5773C19.37 22.5773 20.8871 20.9816 20.8871 19.0148C20.8871 17.0481 19.37 15.4523 17.5 15.4523ZM33.8569 19.0148L23.1593 19.0148C23.1593 21.1375 22.0867 22.9856 20.4919 24.0395L26.1653 33.5691C26.504 34.1406 27.245 34.3262 27.7671 33.9254C31.8669 30.8082 34.6401 25.8801 35 20.2543C35.0423 19.5863 34.499 19.0148 33.8569 19.0148Z" fill="#FFE5E5"/>
</g>
<defs>
<clipPath id="clip0">
<rect width="35" height="38" fill="white" transform="translate(35 38) rotate(-180)"/>
</clipPath>
</defs>
</svg>
